<svg width="162" height="107" viewBox="0 0 162 107" fill="none" xmlns="http://www.w3.org/2000/svg">
<g clip-path="url(#clip0_440_1039)" filter="url(#filter0_d_440_1039)">
<path d="M77.1538 96.9164H63.1978" stroke="#303D63" stroke-width="3" stroke-miterlimit="10" stroke-linecap="round" stroke-linejoin="round"/>
<path d="M98.8022 98.5683H85.945C85.0659 98.5683 84.2967 97.7974 84.2967 96.9163C84.2967 96.0353 85.0659 95.2644 85.945 95.2644H98.8022C102.319 95.2644 105.176 92.4009 105.176 88.8767V11.1234C105.176 7.59916 102.319 4.73573 98.8022 4.73573H63.1978C59.6813 4.84586 56.8242 7.7093 56.8242 11.1234V88.8767C56.8242 92.4009 59.6813 95.2644 63.1978 95.2644C64.0769 95.2644 64.8461 96.0353 64.8461 96.9163C64.8461 97.7974 64.0769 98.5683 63.1978 98.5683C57.9231 98.5683 53.5275 94.2732 53.5275 88.8767V11.1234C53.5275 5.83705 57.8132 1.43176 63.1978 1.43176H98.8022C104.077 1.43176 108.473 5.72692 108.473 11.1234V88.8767C108.473 94.163 104.187 98.5683 98.8022 98.5683Z" fill="#303D63"/>
<path d="M81.5495 90.7489C78.2527 90.7489 75.5055 87.9956 75.5055 84.6917C75.5055 81.3877 78.2527 78.6344 81.5495 78.6344C84.8462 78.6344 87.5934 81.3877 87.5934 84.6917C87.5934 87.9956 84.8462 90.7489 81.5495 90.7489ZM81.5495 81.9384C80.011 81.9384 78.8022 83.1498 78.8022 84.6917C78.8022 86.2335 80.011 87.445 81.5495 87.445C83.0879 87.445 84.2967 86.2335 84.2967 84.6917C84.2967 83.1498 83.0879 81.9384 81.5495 81.9384Z" fill="#C5C7C8"/>
<path d="M79.7912 54.4053C77.5934 54.185 75.3956 52.9736 73.967 50.7709L76.9341 48.4582C77.5934 49.4494 78.5824 50.1102 79.6813 50.4406V46.2555C76.8242 45.7049 74.0769 44.2732 74.0769 40.1983C74.2967 37.1146 76.7143 35.2423 79.6813 34.8018V33.0397H82.2088V34.6917C84.2967 34.9119 86.1649 36.0132 87.4835 37.9956L84.1868 40.1983C83.6374 39.3172 82.978 38.8767 82.0989 38.5463V42.6212C85.1758 43.282 87.9231 44.7137 87.7033 48.8987C87.4835 51.9824 84.9561 53.8546 82.0989 54.2952V56.0573H79.5714V54.4053H79.7912ZM78.2528 40.3084C78.2528 41.2996 78.9121 41.7401 79.7912 42.0705V38.6564C78.9121 38.8767 78.3626 39.4273 78.2528 40.3084ZM82.3187 46.6961V50.4406C83.1978 50.2203 83.8572 49.5595 83.967 48.5683C84.0769 47.5771 83.3077 47.0265 82.3187 46.6961Z" fill="#0285C9"/>
<path d="M98.033 70.9252C97.7033 70.9252 97.3737 70.8151 97.044 70.5948L92.3187 66.9604L87.5934 70.5948C87.044 71.0353 86.1649 71.0353 85.6154 70.5948L81 67.0706L76.2748 70.7049C75.7253 71.1455 74.8462 71.1455 74.2967 70.7049L69.5715 67.0706L64.8462 70.7049C64.2967 71.0353 63.6374 71.1455 63.088 70.9252C62.6484 70.4847 62.3187 69.934 62.3187 69.2732V19.7137C62.3187 18.8327 63.088 18.0618 63.9671 18.0618H98.033C98.9121 18.0618 99.6814 18.8327 99.6814 19.7137V69.2732C99.6814 69.934 99.3517 70.4847 98.8022 70.7049C98.5825 70.9252 98.2528 70.9252 98.033 70.9252ZM81 63.3261C81.3297 63.3261 81.6594 63.4362 81.9891 63.6565L86.7143 67.2908L91.4396 63.6565C91.9891 63.216 92.8682 63.216 93.4176 63.6565L96.4945 65.9693V21.3657H65.6154V65.9693L68.6924 63.6565C69.2418 63.216 70.1209 63.216 70.6704 63.6565L75.3956 67.2908L80.1209 63.6565C80.3407 63.4362 80.6704 63.3261 81 63.3261Z" fill="#303D63"/>
<path d="M26.0548 64.8678C26.0548 65.7489 26.824 66.5198 27.7032 66.5198C28.5823 66.5198 29.3515 65.7489 29.3515 64.8678C29.3515 63.9868 29.3515 59.9119 29.3515 59.9119C29.3515 59.0308 28.5823 58.2599 27.7032 58.2599C26.824 58.2599 26.0548 59.0308 26.0548 59.9119V64.8678Z" fill="#C5C7C8"/>
<path d="M25.1757 60.6827C24.2966 60.6827 23.5273 61.4537 23.5273 62.3347C23.5273 63.2158 24.2966 63.9867 25.1757 63.9867C26.0548 63.9867 30.2306 63.9867 30.2306 63.9867C31.1098 63.9867 31.879 63.2158 31.879 62.3347C31.879 61.4537 31.1098 60.6827 30.2306 60.6827H25.1757Z" fill="#C5C7C8"/>
<path d="M122.758 25.2202C122.758 26.1013 123.527 26.8722 124.407 26.8722C125.286 26.8722 126.055 26.1013 126.055 25.2202C126.055 24.3392 126.055 20.2643 126.055 20.2643C126.055 19.3832 125.286 18.6123 124.407 18.6123C123.527 18.6123 122.758 19.3832 122.758 20.2643V25.2202Z" fill="#C5C7C8"/>
<path d="M121.879 21.0352C121 21.0352 120.231 21.8061 120.231 22.6871C120.231 23.5682 121 24.3391 121.879 24.3391C122.758 24.3391 126.934 24.3391 126.934 24.3391C127.813 24.3391 128.582 23.5682 128.582 22.6871C128.582 21.8061 127.813 21.0352 126.934 21.0352H121.879Z" fill="#C5C7C8"/>
<path d="M26.934 83.9207C27.8131 83.9207 28.5823 83.1497 28.5823 82.2687C28.5823 81.3876 27.8131 80.6167 26.934 80.6167C26.0548 80.6167 15.6153 80.6167 15.6153 80.6167C14.7361 80.6167 13.9669 81.3876 13.9669 82.2687C13.9669 83.1497 14.7361 83.9207 15.6153 83.9207H26.934Z" fill="#C5C7C8"/>
<path d="M155.396 48.348C156.824 48.348 157.923 47.2467 157.923 45.9251C157.923 44.6035 156.824 43.5022 155.396 43.5022C153.967 43.5022 152.868 44.6035 152.868 45.9251C152.868 47.2467 154.077 48.348 155.396 48.348Z" fill="#C5C7C8"/>
<path d="M7.04383 35.1321C8.4724 35.1321 9.5713 34.0307 9.5713 32.7092C9.5713 31.3876 8.4724 30.2863 7.04383 30.2863C5.61526 30.2863 4.51636 31.3876 4.51636 32.7092C4.51636 34.0307 5.72515 35.1321 7.04383 35.1321Z" fill="#C5C7C8"/>
<path d="M129.681 72.2466C128.802 72.2466 128.033 73.0175 128.033 73.8986C128.033 74.7796 129.681 75.5505 129.681 75.5505H132.428C133.308 75.5505 134.077 74.7796 134.077 73.8986C134.077 73.0175 133.308 72.2466 132.428 72.2466H129.681Z" fill="#C5C7C8"/>
<path d="M138.472 72.2466C137.593 72.2466 136.824 73.0175 136.824 73.8986C136.824 74.7796 137.593 75.5505 138.472 75.5505C139.352 75.5505 149.791 75.5505 149.791 75.5505C150.67 75.5505 151.439 74.7796 151.439 73.8986C151.439 73.0175 150.67 72.2466 149.791 72.2466H138.472Z" fill="#C5C7C8"/>
<path d="M39.901 18.1718C40.7801 18.1718 41.5493 17.4008 41.5493 16.5198C41.5493 15.6387 39.901 14.8678 39.901 14.8678H37.1537C36.2746 14.8678 35.5054 15.6387 35.5054 16.5198C35.5054 17.4008 36.2746 18.1718 37.1537 18.1718H39.901Z" fill="#C5C7C8"/>
<path d="M31.1097 18.1718C31.9889 18.1718 32.7581 17.4008 32.7581 16.5198C32.7581 15.6387 31.9889 14.8678 31.1097 14.8678C30.2306 14.8678 19.7911 14.8678 19.7911 14.8678C18.9119 14.8678 18.1427 15.6387 18.1427 16.5198C18.1427 17.4008 18.9119 18.1718 19.7911 18.1718H31.1097Z" fill="#C5C7C8"/>
</g>
<defs>
<filter id="filter0_d_440_1039" x="0.0769043" y="0" width="161.846" height="108" filterUnits="userSpaceOnUse" color-interpolation-filters="sRGB">
<feFlood flood-opacity="0" result="BackgroundImageFix"/>
<feColorMatrix in="SourceAlpha" type="matrix" values="0 0 0 0 0 0 0 0 0 0 0 0 0 0 0 0 0 0 127 0" result="hardAlpha"/>
<feOffset dy="4"/>
<feGaussianBlur stdDeviation="2"/>
<feComposite in2="hardAlpha" operator="out"/>
<feColorMatrix type="matrix" values="0 0 0 0 0 0 0 0 0 0 0 0 0 0 0 0 0 0 0.25 0"/>
<feBlend mode="normal" in2="BackgroundImageFix" result="effect1_dropShadow_440_1039"/>
<feBlend mode="normal" in="SourceGraphic" in2="effect1_dropShadow_440_1039" result="shape"/>
</filter>
<clipPath id="clip0_440_1039">
<rect width="153.846" height="100" fill="white" transform="translate(4.0769)"/>
</clipPath>
</defs>
</svg>
