<svg width="154" height="100" viewBox="0 0 154 100" fill="none" xmlns="http://www.w3.org/2000/svg">
<path d="M48.0503 69.7137C43.664 69.7137 39.3874 68.2819 35.8783 65.6388C35.659 65.5286 35.5493 65.3084 35.4397 65.0881C34.2334 62.8855 33.4658 60.3524 33.4658 57.8194C33.4658 52.7533 36.0976 48.7885 40.7032 46.9163C39.497 45.1542 38.8391 43.0617 38.8391 40.9692C38.8391 35.4626 42.8964 30.9471 47.9407 30.9471C52.9849 30.9471 57.0423 35.4626 57.0423 40.9692C57.0423 43.1718 56.3843 45.2643 55.1781 46.9163C59.7837 48.8987 62.4155 52.7533 62.4155 57.8194C62.4155 60.3524 61.7576 62.8855 60.4417 65.0881C60.332 65.3084 60.2224 65.4185 60.003 65.6388C56.7133 68.2819 52.4366 69.7137 48.0503 69.7137ZM38.0715 63.1057C41.0322 65.1982 44.4316 66.2996 48.0503 66.2996C51.669 66.2996 55.0684 65.1982 58.0292 63.1057C58.9065 61.4537 59.3451 59.6916 59.3451 57.8194C59.3451 51.8723 54.8491 49.8899 52.1077 49.2291C51.4497 49.1189 51.0111 48.5683 50.9014 48.0176C50.7918 47.3568 51.0111 46.8062 51.4497 46.3656C52.9849 45.1542 53.9719 43.0617 53.9719 40.859C53.9719 37.2247 51.3401 34.141 48.16 34.141C44.9799 34.141 42.3481 37.1145 42.3481 40.859C42.3481 43.0617 43.2254 45.0441 44.8702 46.3656C45.3089 46.8062 45.5282 47.3568 45.4185 48.0176C45.3089 48.6784 44.7606 49.1189 44.2123 49.2291C41.4708 49.8899 36.9749 51.8723 36.9749 57.8194C36.7556 59.6916 37.1942 61.5639 38.0715 63.1057Z" fill="#0285C9"/>
<path d="M121.412 86.3436H32.5886C23.487 86.3436 16.1399 78.9648 16.1399 69.8238V62.9956C16.1399 62.1146 16.9075 61.3436 17.7848 61.3436C18.662 61.3436 19.4296 62.1146 19.4296 62.9956V69.8238C19.4296 77.0925 25.3512 83.0397 32.5886 83.0397H121.412C128.649 83.0397 134.57 77.0925 134.57 69.8238V62.9956C134.57 62.1146 135.338 61.3436 136.215 61.3436C137.093 61.3436 137.86 62.1146 137.86 62.9956V69.8238C137.86 78.9648 130.513 86.3436 121.412 86.3436Z" fill="#303D63"/>
<path d="M136.215 39.8678C135.338 39.8678 134.57 39.0969 134.57 38.2158V30.1762C134.57 22.9075 128.649 16.9603 121.412 16.9603H32.5886C25.3512 16.9603 19.4296 22.9075 19.4296 30.1762V38.2158C19.4296 39.0969 18.662 39.8678 17.7848 39.8678C16.9075 39.8678 16.1399 39.0969 16.1399 38.2158V30.1762C16.1399 21.0352 23.487 13.6564 32.5886 13.6564H121.412C130.513 13.6564 137.86 21.0352 137.86 30.1762V38.2158C137.86 39.207 137.093 39.8678 136.215 39.8678Z" fill="#303D63"/>
<path d="M117.683 39.8678H75.1358C74.2586 39.8678 73.491 39.0969 73.491 38.2158C73.491 37.3348 74.2586 36.5638 75.1358 36.5638H117.683C118.56 36.5638 119.328 37.3348 119.328 38.2158C119.328 39.0969 118.67 39.8678 117.683 39.8678Z" fill="#C5C7C8"/>
<path d="M116.477 51.652H75.7938C74.9165 51.652 74.1489 50.8811 74.1489 50C74.1489 49.1189 74.9165 48.348 75.7938 48.348H116.477C117.354 48.348 118.122 49.1189 118.122 50C118.122 50.8811 117.354 51.652 116.477 51.652Z" fill="#C5C7C8"/>
<path d="M106.608 64.0969H75.7938C74.9165 64.0969 74.1489 63.326 74.1489 62.4449C74.1489 61.5639 74.9165 60.793 75.7938 60.793H106.608C107.485 60.793 108.253 61.5639 108.253 62.4449C108.253 63.326 107.485 64.0969 106.608 64.0969Z" fill="#C5C7C8"/>
<path d="M3.52905 23.0176C3.52905 23.8987 4.29666 24.6696 5.17392 24.6696C6.05119 24.6696 6.81879 23.8987 6.81879 23.0176C6.81879 22.1365 6.81879 18.0617 6.81879 18.0617C6.81879 17.1806 6.05119 16.4097 5.17392 16.4097C4.29666 16.4097 3.52905 17.1806 3.52905 18.0617V23.0176Z" fill="#C5C7C8"/>
<path d="M2.65195 18.8325C1.77469 18.8325 1.00708 19.6034 1.00708 20.4845C1.00708 21.3656 1.77469 22.1365 2.65195 22.1365C3.52921 22.1365 7.69622 22.1365 7.69622 22.1365C8.57348 22.1365 9.34108 21.3656 9.34108 20.4845C9.34108 19.6034 8.57348 18.8325 7.69622 18.8325H2.65195Z" fill="#C5C7C8"/>
<path d="M24.145 3.52418C25.0222 3.52418 25.7898 2.75325 25.7898 1.8722C25.7898 0.99114 25.0222 0.220215 24.145 0.220215C23.2677 0.220215 12.8502 0.220215 12.8502 0.220215C11.9729 0.220215 11.2053 0.99114 11.2053 1.8722C11.2053 2.75325 11.9729 3.52418 12.8502 3.52418H24.145Z" fill="#C5C7C8"/>
<path d="M150.142 82.489C151.568 82.489 152.664 81.3877 152.664 80.0661C152.664 78.7445 151.568 77.6432 150.142 77.6432C148.716 77.6432 147.62 78.7445 147.62 80.0661C147.62 81.3877 148.826 82.489 150.142 82.489Z" fill="#C5C7C8"/>
<path d="M122.289 96.4757C121.412 96.4757 120.644 97.2466 120.644 98.1277C120.644 99.0088 122.289 99.7797 122.289 99.7797H125.03C125.908 99.7797 126.675 99.0088 126.675 98.1277C126.675 97.2466 125.908 96.4757 125.03 96.4757H122.289Z" fill="#C5C7C8"/>
<path d="M131.061 96.4757C130.184 96.4757 129.417 97.2466 129.417 98.1277C129.417 99.0088 130.184 99.7797 131.061 99.7797C131.939 99.7797 142.356 99.7797 142.356 99.7797C143.233 99.7797 144.001 99.0088 144.001 98.1277C144.001 97.2466 143.233 96.4757 142.356 96.4757H131.061Z" fill="#C5C7C8"/>
</svg>
