<svg width="154" height="100" viewBox="0 0 154 100" fill="none" xmlns="http://www.w3.org/2000/svg">
<path d="M85.9416 31.4978C88.1494 31.7181 90.2468 32.9295 91.6818 35.022L88.7013 37.3348C88.039 36.3436 87.0455 35.6828 85.9416 35.4626V39.5375C88.7013 40.0881 91.461 41.5198 91.461 45.4846C91.2403 48.5683 88.8117 50.3304 85.9416 50.7709V52.4229H83.4026V50.7709C81.4156 50.5507 79.539 49.5595 78.2143 47.467L81.4156 45.2643C81.9675 46.0352 82.6299 46.5859 83.4026 46.9163V42.9515C80.4221 42.2908 77.6624 40.9692 77.8831 36.8943C78.1039 33.9207 80.6429 32.0485 83.4026 31.6079V29.8458H85.9416V31.4978ZM87.3766 45.3745C87.3766 44.3833 86.7143 43.9427 85.8312 43.7225V47.1366C86.8247 46.696 87.3766 46.2555 87.3766 45.3745ZM83.4026 39.0969V35.4626C82.5195 35.6828 81.8572 36.3436 81.8572 37.2247C81.7468 38.2159 82.4091 38.7665 83.4026 39.0969Z" fill="#0285C9"/>
<path d="M101.506 58.4802C100.623 58.4802 99.8506 57.7093 99.8506 56.8282V20.3745L96.9805 22.5771C96.4286 23.0176 95.5455 23.0176 94.9935 22.5771L90.4675 19.0529L85.9416 22.5771C85.3896 23.0176 84.5065 23.0176 83.9545 22.5771L79.4286 19.0529L74.9026 22.5771C74.3506 23.0176 73.4675 23.0176 72.9156 22.5771L70.0455 20.3745V56.9384C70.0455 57.8194 69.2727 58.5903 68.3896 58.5903C67.5065 58.5903 66.7338 57.8194 66.7338 56.9384V16.9604C66.7338 16.2996 67.0649 15.7489 67.6169 15.5287C68.1688 15.1983 68.8312 15.3084 69.3831 15.7489L73.9091 19.2731L78.4351 15.7489C78.987 15.3084 79.8701 15.3084 80.4221 15.7489L84.948 19.2731L89.474 15.7489C90.026 15.3084 90.9091 15.3084 91.461 15.7489L95.987 19.2731L100.513 15.7489C101.065 15.4185 101.727 15.3084 102.279 15.5287C102.831 15.8591 103.162 16.4097 103.162 16.9604V56.8282C103.162 57.8194 102.39 58.4802 101.506 58.4802Z" fill="#C5C7C8"/>
<path d="M111.883 91.2996H33.3961C29.0909 91.2996 25.6688 87.8855 25.6688 83.5904V36.2335C25.6688 31.9384 29.0909 28.5243 33.3961 28.5243H44.987C49.2922 28.5243 52.7143 31.9384 52.7143 36.2335V38.2159H62.3182C63.2013 38.2159 63.974 38.9868 63.974 39.8679C63.974 40.749 63.2013 41.5199 62.3182 41.5199H51.0584C50.1753 41.5199 49.4026 40.749 49.4026 39.8679V36.2335C49.4026 33.8106 47.4156 31.8283 44.987 31.8283H33.3961C30.9675 31.8283 28.9805 33.8106 28.9805 36.2335V83.5904C28.9805 86.0133 30.9675 87.9957 33.3961 87.9957H111.883C112.766 87.9957 113.539 88.7666 113.539 89.6476C113.539 90.5287 112.877 91.2996 111.883 91.2996Z" fill="#303D63"/>
<path d="M117.955 58.4803C117.072 58.4803 116.299 57.7093 116.299 56.8283V45.9252C116.299 43.5023 114.312 41.5199 111.883 41.5199H107.357C106.474 41.5199 105.701 40.749 105.701 39.8679C105.701 38.9869 106.474 38.2159 107.357 38.2159H111.883C116.188 38.2159 119.611 41.63 119.611 45.9252V56.8283C119.611 57.8195 118.948 58.4803 117.955 58.4803Z" fill="#303D63"/>
<path d="M113.98 91.2996H33.7272C30.8571 91.2996 28.3182 89.8679 26.8831 87.445C25.448 85.1322 25.448 82.3789 26.6623 80.0661L37.2597 59.4714C38.5844 56.8283 41.3441 55.1763 44.435 55.1763H124.688C127.558 55.1763 130.097 56.608 131.532 59.0309C132.967 61.3437 132.967 64.097 131.753 66.4097L121.156 87.0045C119.721 89.6476 116.961 91.2996 113.98 91.2996ZM44.435 58.4802C42.6688 58.4802 41.013 59.4714 40.2402 60.9031L29.422 81.4979C28.7597 82.8194 28.7597 84.3613 29.5324 85.6829C30.4156 87.1146 31.8506 87.8855 33.6169 87.8855H113.87C115.636 87.8855 117.292 86.8943 118.065 85.4626L128.883 64.8679C129.545 63.5463 129.545 62.0045 128.773 60.6829C127.89 59.2512 126.454 58.4802 124.688 58.4802H44.435V58.4802Z" fill="#303D63"/>
<path d="M21.8051 7.59914C21.8051 8.4802 22.5778 9.25112 23.4609 9.25112C24.344 9.25112 25.1167 8.4802 25.1167 7.59914C25.1167 6.71808 25.1167 2.64319 25.1167 2.64319C25.1167 1.76214 24.344 0.991211 23.4609 0.991211C22.5778 0.991211 21.8051 1.76214 21.8051 2.64319V7.59914Z" fill="#C5C7C8"/>
<path d="M20.9221 3.41418C20.039 3.41418 19.2662 4.18511 19.2662 5.06617C19.2662 5.94722 20.039 6.71815 20.9221 6.71815C21.8052 6.71815 26 6.71815 26 6.71815C26.8831 6.71815 27.6558 5.94722 27.6558 5.06617C27.6558 4.18511 26.8831 3.41418 26 3.41418H20.9221V3.41418Z" fill="#C5C7C8"/>
<path d="M139.922 70.3745C139.922 71.2556 140.695 72.0265 141.578 72.0265C142.461 72.0265 143.234 71.2556 143.234 70.3745C143.234 69.4935 143.234 65.4186 143.234 65.4186C143.234 64.5375 142.461 63.7666 141.578 63.7666C140.695 63.7666 139.922 64.5375 139.922 65.4186V70.3745Z" fill="#C5C7C8"/>
<path d="M139.039 66.1895C138.156 66.1895 137.383 66.9604 137.383 67.8414C137.383 68.7225 138.156 69.4934 139.039 69.4934C139.922 69.4934 144.117 69.4934 144.117 69.4934C145 69.4934 145.773 68.7225 145.773 67.8414C145.773 66.9604 145 66.1895 144.117 66.1895H139.039Z" fill="#C5C7C8"/>
<path d="M13.8572 90.5287C14.7403 90.5287 15.513 89.7578 15.513 88.8767C15.513 87.9957 14.7403 87.2247 13.8572 87.2247C12.974 87.2247 2.48702 87.2247 2.48702 87.2247C1.6039 87.2247 0.831177 87.9957 0.831177 88.8767C0.831177 89.7578 1.6039 90.5287 2.48702 90.5287H13.8572Z" fill="#C5C7C8"/>
<path d="M150.63 99.0088C152.065 99.0088 153.169 97.9075 153.169 96.5859C153.169 95.2643 152.065 94.163 150.63 94.163C149.195 94.163 148.091 95.2643 148.091 96.5859C148.091 97.9075 149.305 99.0088 150.63 99.0088Z" fill="#C5C7C8"/>
<path d="M8.22719 54.9559C9.66226 54.9559 10.7662 53.8546 10.7662 52.533C10.7662 51.2114 9.66226 50.1101 8.22719 50.1101C6.79213 50.1101 5.68823 51.2114 5.68823 52.533C5.68823 53.8546 6.90252 54.9559 8.22719 54.9559Z" fill="#C5C7C8"/>
<path d="M138.928 9.91188C139.811 9.91188 140.584 9.14095 140.584 8.25989C140.584 7.37884 138.928 6.60791 138.928 6.60791H136.169C135.285 6.60791 134.513 7.37884 134.513 8.25989C134.513 9.14095 135.285 9.91188 136.169 9.91188H138.928Z" fill="#C5C7C8"/>
<path d="M130.097 9.91188C130.98 9.91188 131.753 9.14095 131.753 8.25989C131.753 7.37884 130.98 6.60791 130.097 6.60791C129.214 6.60791 118.727 6.60791 118.727 6.60791C117.844 6.60791 117.071 7.37884 117.071 8.25989C117.071 9.14095 117.844 9.91188 118.727 9.91188H130.097Z" fill="#C5C7C8"/>
</svg>
