<svg width="156" height="100" viewBox="0 0 156 100" fill="none" xmlns="http://www.w3.org/2000/svg">
<path fill-rule="evenodd" clip-rule="evenodd" d="M64.0076 66.6565C61.4413 66.6565 59.154 68.1503 58.048 70.3543C57.2677 70.1142 56.4608 69.9908 55.6538 69.9908C51.0475 69.9908 47.3 73.7303 47.3 78.3267C47.3 79.2469 48.0485 79.9938 48.9707 79.9938C49.893 79.9938 50.6415 79.2469 50.6415 78.3267C50.6415 75.5692 52.8904 73.3252 55.6538 73.3252C56.5393 73.3252 57.3997 73.5702 58.2101 74.0537C58.6912 74.3405 59.2827 74.3671 59.7873 74.1254C60.2918 73.8853 60.6427 73.4085 60.7212 72.855C60.9535 71.2229 62.3669 69.9908 64.0076 69.9908C65.7335 69.9908 67.1536 71.2962 67.3107 73.0251C67.3742 73.7336 67.8804 74.3221 68.5705 74.4938C69.2621 74.6656 69.9856 74.3821 70.3749 73.7853C71.9253 71.4096 74.5434 69.9908 77.3737 69.9908C80.204 69.9908 82.822 71.4096 84.3725 73.7853C84.7618 74.3821 85.4869 74.6656 86.1769 74.4938C86.867 74.3221 87.3732 73.7336 87.4367 73.0251C87.5937 71.2962 89.0139 69.9908 90.7398 69.9908C92.3805 69.9908 93.7939 71.2229 94.0262 72.855C94.1047 73.4085 94.4556 73.8853 94.9601 74.1254C95.4664 74.3671 96.0578 74.3405 96.5373 74.0537C97.3476 73.5702 98.2081 73.3252 99.0936 73.3252C101.857 73.3252 104.106 75.5692 104.106 78.3267C104.106 79.2469 104.854 79.9938 105.777 79.9938C106.699 79.9938 107.447 79.2469 107.447 78.3267C107.447 73.7303 103.7 69.9908 99.0936 69.9908C98.2866 69.9908 97.4796 70.1142 96.6994 70.3543C95.5933 68.1503 93.3061 66.6565 90.7398 66.6565C88.4174 66.6565 86.3724 67.8268 85.1795 69.6391C83.061 67.7368 80.2992 66.6565 77.3737 66.6565C74.4482 66.6565 71.6864 67.7368 69.5679 69.6391C68.375 67.8268 66.33 66.6565 64.0076 66.6565Z" fill="#C5C7C8"/>
<path fill-rule="evenodd" clip-rule="evenodd" d="M57.3246 58.3208C57.3246 59.2411 58.0731 59.988 58.9953 59.988H64.0076V61.6551C64.0076 62.5754 64.7561 63.3223 65.6784 63.3223C66.6006 63.3223 67.3491 62.5754 67.3491 61.6551V59.988H70.6906C71.6129 59.988 72.3614 59.2411 72.3614 58.3208C72.3614 57.4005 71.6129 56.6536 70.6906 56.6536H60.6661V54.9865C60.6661 50.0733 62.3519 48.0144 64.1362 45.8337C65.7151 43.9031 67.3491 41.9059 67.3491 38.3148V21.6431C67.3491 15.8231 70.0942 12.9305 70.303 12.7071L77.3737 4.24127L84.5379 12.8105C84.6532 12.9305 87.3983 15.8231 87.3983 21.6431V38.3148C87.3983 41.9059 89.0323 43.9031 90.6111 45.8337C92.3955 48.0144 94.0813 50.0733 94.0813 54.9865V56.6536H84.0567C83.1345 56.6536 82.386 57.4005 82.386 58.3208C82.386 59.2411 83.1345 59.988 84.0567 59.988H87.3983V61.6551C87.3983 62.5754 88.1468 63.3223 89.069 63.3223C89.9913 63.3223 90.7398 62.5754 90.7398 61.6551V59.988H95.7521C96.6743 59.988 97.4228 59.2411 97.4228 58.3208V54.9865C97.4228 48.8846 95.0821 46.0238 93.2008 43.7247C91.7723 41.9792 90.7398 40.7172 90.7398 38.3148V21.6431C90.7398 14.3676 87.0658 10.6182 87.0106 10.5732L78.6568 0.570171C78.0219 -0.190057 76.7254 -0.190057 76.0905 0.570171L67.8387 10.4615C67.6816 10.6182 64.0076 14.3676 64.0076 21.6431V38.3148C64.0076 40.7172 62.9751 41.9792 61.5466 43.7247C59.6653 46.0238 57.3246 48.8846 57.3246 54.9865V58.3208Z" fill="#0285C9"/>
<path fill-rule="evenodd" clip-rule="evenodd" d="M76.1204 47.9311V61.2684C76.1204 62.1887 76.8689 62.9356 77.7912 62.9356C78.7134 62.9356 79.4619 62.1887 79.4619 61.2684V47.9311C79.4619 47.0108 78.7134 46.2639 77.7912 46.2639C76.8689 46.2639 76.1204 47.0108 76.1204 47.9311Z" fill="#0285C9"/>
<path fill-rule="evenodd" clip-rule="evenodd" d="M9.70767 26.7449C9.70767 27.6652 10.4562 28.4121 11.3784 28.4121C12.3007 28.4121 13.0492 27.6652 13.0492 26.7449C13.0492 25.8247 13.0492 21.673 13.0492 21.673C13.0492 20.7528 12.3007 20.0059 11.3784 20.0059C10.4562 20.0059 9.70767 20.7528 9.70767 21.673V26.7449Z" fill="#C5C7C8"/>
<path fill-rule="evenodd" clip-rule="evenodd" d="M141.28 64.9893C141.28 65.9096 142.029 66.6565 142.951 66.6565C143.873 66.6565 144.622 65.9096 144.622 64.9893C144.622 64.069 144.622 59.9174 144.622 59.9174C144.622 58.9971 143.873 58.2502 142.951 58.2502C142.029 58.2502 141.28 58.9971 141.28 59.9174V64.9893Z" fill="#C5C7C8"/>
<path fill-rule="evenodd" clip-rule="evenodd" d="M8.87227 22.5066C7.95001 22.5066 7.20151 23.2535 7.20151 24.1738C7.20151 25.094 7.95001 25.8409 8.87227 25.8409C9.79453 25.8409 13.9551 25.8409 13.9551 25.8409C14.8774 25.8409 15.6259 25.094 15.6259 24.1738C15.6259 23.2535 14.8774 22.5066 13.9551 22.5066H8.87227Z" fill="#C5C7C8"/>
<path fill-rule="evenodd" clip-rule="evenodd" d="M2.60692 48.7645C1.68466 48.7645 0.936157 49.5114 0.936157 50.4317C0.936157 51.352 1.68466 52.0989 2.60692 52.0989C3.52918 52.0989 13.9551 52.0989 13.9551 52.0989C14.8774 52.0989 15.6259 51.352 15.6259 50.4317C15.6259 49.5114 14.8774 48.7645 13.9551 48.7645H2.60692Z" fill="#C5C7C8"/>
<path fill-rule="evenodd" clip-rule="evenodd" d="M111.38 15.1776C110.458 15.1776 109.709 15.9245 109.709 16.8448C109.709 17.7651 111.38 18.5119 111.38 18.5119H114.103C115.025 18.5119 115.774 17.7651 115.774 16.8448C115.774 15.9245 115.025 15.1776 114.103 15.1776H111.38Z" fill="#C5C7C8"/>
<path d="M152.558 38.7615C153.942 38.7615 155.064 37.6419 155.064 36.2608C155.064 34.8796 153.942 33.76 152.558 33.76C151.174 33.76 150.052 34.8796 150.052 36.2608C150.052 37.6419 151.174 38.7615 152.558 38.7615Z" fill="#C5C7C8"/>
<path fill-rule="evenodd" clip-rule="evenodd" d="M120.151 15.1776C119.229 15.1776 118.481 15.9245 118.481 16.8448C118.481 17.765 119.229 18.5119 120.151 18.5119C121.074 18.5119 131.5 18.5119 131.5 18.5119C132.422 18.5119 133.17 17.765 133.17 16.8448C133.17 15.9245 132.422 15.1776 131.5 15.1776H120.151Z" fill="#C5C7C8"/>
<path fill-rule="evenodd" clip-rule="evenodd" d="M140.445 60.7512H145.527C146.45 60.7512 147.198 61.4981 147.198 62.4184C147.198 63.3387 146.45 64.0855 145.527 64.0855C145.527 64.0855 141.367 64.0855 140.445 64.0855C139.522 64.0855 138.774 63.3387 138.774 62.4184C138.774 61.4981 139.522 60.7512 140.445 60.7512Z" fill="#C5C7C8"/>
<path fill-rule="evenodd" clip-rule="evenodd" d="M77.3739 33.3134C73.6882 33.3134 70.6909 30.3225 70.6909 26.6447C70.6909 22.967 73.6882 19.9761 77.3739 19.9761C81.0596 19.9761 84.0569 22.967 84.0569 26.6447C84.0569 30.3225 81.0596 33.3134 77.3739 33.3134ZM80.7154 26.6447C80.7154 24.8059 79.2167 23.3104 77.3739 23.3104C75.531 23.3104 74.0324 24.8059 74.0324 26.6447C74.0324 28.4836 75.531 29.9791 77.3739 29.9791C79.2167 29.9791 80.7154 28.4836 80.7154 26.6447Z" fill="#0285C9"/>
<path fill-rule="evenodd" clip-rule="evenodd" d="M32.263 86.6627C33.1852 86.6627 33.9337 85.9158 33.9337 84.9956V34.9806C33.9337 32.5499 36.5101 29.9791 38.946 29.9791H58.9952C59.9174 29.9791 60.6659 29.2322 60.6659 28.3119C60.6659 27.3917 59.9174 26.6448 58.9952 26.6448H38.946C34.6522 26.6448 30.5922 30.696 30.5922 34.9806V84.9956C30.5922 85.9158 31.3407 86.6627 32.263 86.6627Z" fill="#303D63"/>
<path fill-rule="evenodd" clip-rule="evenodd" d="M125.826 83.3284H124.155V34.9806C124.155 30.696 120.095 26.6448 115.801 26.6448H95.752C94.8297 26.6448 94.0813 27.3917 94.0813 28.3119C94.0813 29.2322 94.8297 29.9791 95.752 29.9791H115.801C118.237 29.9791 120.813 32.5499 120.813 34.9806V84.9956C120.813 85.9158 121.562 86.6627 122.484 86.6627H124.155V91.6642C124.155 94.095 121.579 96.6657 119.143 96.6657H35.6046C33.7283 96.6657 31.7702 95.1419 30.9682 93.3314H119.143C120.065 93.3314 120.813 92.5845 120.813 91.6642C120.813 90.744 120.065 89.9971 119.143 89.9971H28.9216C27.9993 89.9971 27.2508 90.744 27.2508 91.6642C27.2508 95.9488 31.3107 100 35.6046 100H119.143C123.437 100 127.496 95.9488 127.496 91.6642V84.9956C127.496 84.0753 126.748 83.3284 125.826 83.3284Z" fill="#303D63"/>
<path fill-rule="evenodd" clip-rule="evenodd" d="M58.9954 36.6477H43.9585C42.8842 36.6477 40.8125 37.813 40.607 38.3999L40.617 83.3283H114.131V38.3149C114.131 37.5663 113.21 36.6477 112.46 36.6477H95.7521C94.8299 36.6477 94.0814 35.9008 94.0814 34.9805C94.0814 34.0602 94.8299 33.3134 95.7521 33.3134H112.46C115.036 33.3134 117.472 35.7441 117.472 38.3149V84.9955C117.472 85.9158 116.724 86.6627 115.801 86.6627H38.9462C38.024 86.6627 37.2755 85.9158 37.2755 84.9955V38.3149C37.2755 35.4257 41.6713 33.3134 43.9585 33.3134H58.9954C59.9176 33.3134 60.6661 34.0602 60.6661 34.9805C60.6661 35.9008 59.9176 36.6477 58.9954 36.6477Z" fill="#303D63"/>
</svg>
