<svg width="154" height="100" viewBox="0 0 154 100" fill="none" xmlns="http://www.w3.org/2000/svg">
<path d="M13.2 7.59914C13.2 8.4802 13.97 9.25112 14.85 9.25112C15.73 9.25112 16.5 8.4802 16.5 7.59914C16.5 6.71808 16.5 2.64319 16.5 2.64319C16.5 1.76214 15.73 0.991211 14.85 0.991211C13.97 0.991211 13.2 1.76214 13.2 2.64319V7.59914Z" fill="#C5C7C8"/>
<path d="M12.3201 3.41406C11.4401 3.41406 10.6701 4.18499 10.6701 5.06605C10.6701 5.9471 11.4401 6.71803 12.3201 6.71803C13.2001 6.71803 17.3801 6.71803 17.3801 6.71803C18.2601 6.71803 19.0301 5.9471 19.0301 5.06605C19.0301 4.18499 18.2601 3.41406 17.3801 3.41406H12.3201V3.41406Z" fill="#C5C7C8"/>
<path d="M146.3 74.7798C146.3 75.6609 147.07 76.4318 147.95 76.4318C148.83 76.4318 149.6 75.6609 149.6 74.7798C149.6 73.8987 149.6 69.8239 149.6 69.8239C149.6 68.9428 148.83 68.1719 147.95 68.1719C147.07 68.1719 146.3 68.9428 146.3 69.8239V74.7798Z" fill="#C5C7C8"/>
<path d="M145.42 70.5948C144.54 70.5948 143.77 71.3658 143.77 72.2468C143.77 73.1279 144.54 73.8988 145.42 73.8988C146.3 73.8988 150.48 73.8988 150.48 73.8988C151.36 73.8988 152.13 73.1279 152.13 72.2468C152.13 71.3658 151.36 70.5948 150.48 70.5948H145.42Z" fill="#C5C7C8"/>
<path d="M14.08 90.5287C14.96 90.5287 15.73 89.7578 15.73 88.8767C15.73 87.9957 14.96 87.2247 14.08 87.2247C13.2 87.2247 2.74998 87.2247 2.74998 87.2247C1.86998 87.2247 1.09998 87.9957 1.09998 88.8767C1.09998 89.7578 1.86998 90.5287 2.74998 90.5287H14.08Z" fill="#C5C7C8"/>
<path d="M136.07 19.7137C137.5 19.7137 138.6 18.6124 138.6 17.2908C138.6 15.9692 137.5 14.8679 136.07 14.8679C134.64 14.8679 133.54 15.9692 133.54 17.2908C133.54 18.6124 134.75 19.7137 136.07 19.7137Z" fill="#C5C7C8"/>
<path d="M8.46994 54.9559C9.89994 54.9559 10.9999 53.8546 10.9999 52.533C10.9999 51.2114 9.89994 50.1101 8.46994 50.1101C7.03994 50.1101 5.93994 51.2114 5.93994 52.533C5.93994 53.8546 7.14994 54.9559 8.46994 54.9559Z" fill="#C5C7C8"/>
<path d="M151.36 99.6697C152.24 99.6697 153.01 98.8988 153.01 98.0177C153.01 97.1366 151.36 96.3657 151.36 96.3657H148.61C147.73 96.3657 146.96 97.1366 146.96 98.0177C146.96 98.8988 147.73 99.6697 148.61 99.6697H151.36Z" fill="#C5C7C8"/>
<path d="M142.56 99.6697C143.44 99.6697 144.21 98.8988 144.21 98.0177C144.21 97.1366 143.44 96.3657 142.56 96.3657C141.68 96.3657 131.23 96.3657 131.23 96.3657C130.35 96.3657 129.58 97.1366 129.58 98.0177C129.58 98.8988 130.35 99.6697 131.23 99.6697H142.56Z" fill="#C5C7C8"/>
<path d="M119.57 83.8106H32.4501C31.5701 83.8106 30.8001 83.0397 30.8001 82.1586V23.7886C30.8001 22.9075 31.5701 22.1366 32.4501 22.1366C33.3301 22.1366 34.1001 22.9075 34.1001 23.7886V80.5066H119.57C120.45 80.5066 121.22 81.2776 121.22 82.1586C121.22 83.0397 120.45 83.8106 119.57 83.8106Z" fill="#303D63"/>
<path d="M32.4504 17.511L28.9304 23.4581H35.8604L32.4504 17.511Z" fill="#303D63"/>
<path d="M35.8602 24.0088H28.9302C28.7102 24.0088 28.6002 23.8987 28.4902 23.7885C28.3802 23.5683 28.3802 23.4581 28.4902 23.2379L32.0102 17.1806C32.1202 16.9603 32.3402 16.9603 32.4502 16.9603C32.6702 16.9603 32.7802 17.0705 32.8902 17.1806L36.4102 23.2379C36.5202 23.4581 36.5202 23.5683 36.4102 23.7885C36.3002 23.8987 36.0802 24.0088 35.8602 24.0088ZM29.9202 22.9075H34.9802L32.4502 18.5022L29.9202 22.9075Z" fill="#303D63"/>
<path d="M125.07 81.7179L119.02 78.3038V85.2422L125.07 81.7179Z" fill="#303D63"/>
<path d="M119.02 85.7929C118.91 85.7929 118.8 85.7929 118.8 85.6828C118.58 85.5726 118.58 85.3524 118.58 85.2422V78.3039C118.58 78.0836 118.69 77.9735 118.8 77.8634C119.02 77.7532 119.13 77.7532 119.35 77.8634L125.4 81.3876C125.62 81.4977 125.62 81.718 125.62 81.8281C125.62 81.9383 125.51 82.1585 125.4 82.2686L119.35 85.7929C119.24 85.6828 119.13 85.7929 119.02 85.7929ZM119.57 79.185V84.251L123.97 81.718L119.57 79.185Z" fill="#303D63"/>
<path d="M37.95 77.533C37.62 77.533 37.29 77.4228 36.96 77.2026C36.19 76.6519 36.08 75.6607 36.52 74.8898L51.92 53.0836C52.14 52.7532 52.58 52.4228 53.02 52.4228C53.46 52.3127 53.9 52.4228 54.23 52.7532L71.83 66.1894L90.2 22.4669C90.42 21.9162 90.97 21.4757 91.63 21.4757C92.18 21.4757 92.84 21.696 93.17 22.2466L105.27 41.5198L119.79 28.3039C120.45 27.6431 121.55 27.7532 122.1 28.414C122.76 29.0748 122.65 30.1761 121.99 30.7268L106.15 45.1541C105.82 45.4845 105.27 45.5946 104.83 45.5946C104.39 45.4845 103.95 45.2643 103.62 44.8237L92.18 26.5418L74.14 69.3832C73.92 69.8237 73.59 70.1541 73.04 70.3744C72.49 70.5946 72.05 70.3744 71.61 70.044L53.68 56.3876L39.27 76.8722C38.94 77.3127 38.5 77.533 37.95 77.533Z" fill="#0285C9"/>
<path d="M31.3501 36.7841H25.8501C24.9701 36.7841 24.2001 36.0131 24.2001 35.1321C24.2001 34.251 24.9701 33.4801 25.8501 33.4801H31.3501C32.2301 33.4801 33.0001 34.251 33.0001 35.1321C33.0001 36.0131 32.2301 36.7841 31.3501 36.7841Z" fill="#303D63"/>
<path d="M31.3501 45.5946H25.8501C24.9701 45.5946 24.2001 44.8237 24.2001 43.9426C24.2001 43.0616 24.9701 42.2906 25.8501 42.2906H31.3501C32.2301 42.2906 33.0001 43.0616 33.0001 43.9426C33.0001 44.8237 32.2301 45.5946 31.3501 45.5946Z" fill="#303D63"/>
<path d="M31.3501 54.4052H25.8501C24.9701 54.4052 24.2001 53.6342 24.2001 52.7532C24.2001 51.8721 24.9701 51.1012 25.8501 51.1012H31.3501C32.2301 51.1012 33.0001 51.8721 33.0001 52.7532C33.0001 53.6342 32.2301 54.4052 31.3501 54.4052Z" fill="#303D63"/>
<path d="M31.3501 63.2158H25.8501C24.9701 63.2158 24.2001 62.4449 24.2001 61.5639C24.2001 60.6828 24.9701 59.9119 25.8501 59.9119H31.3501C32.2301 59.9119 33.0001 60.6828 33.0001 61.5639C33.0001 62.4449 32.2301 63.2158 31.3501 63.2158Z" fill="#303D63"/>
<path d="M31.3501 72.0264H25.8501C24.9701 72.0264 24.2001 71.2555 24.2001 70.3744C24.2001 69.4933 24.9701 68.7224 25.8501 68.7224H31.3501C32.2301 68.7224 33.0001 69.4933 33.0001 70.3744C33.0001 71.2555 32.2301 72.0264 31.3501 72.0264Z" fill="#303D63"/>
<path d="M75.3501 89.6476C74.4701 89.6476 73.7001 88.8767 73.7001 87.9956V82.489C73.7001 81.608 74.4701 80.837 75.3501 80.837C76.2301 80.837 77.0001 81.608 77.0001 82.489V87.9956C77.0001 88.8767 76.2301 89.6476 75.3501 89.6476Z" fill="#303D63"/>
<path d="M84.15 89.6476C83.27 89.6476 82.5 88.8767 82.5 87.9956V82.489C82.5 81.608 83.27 80.837 84.15 80.837C85.03 80.837 85.8 81.608 85.8 82.489V87.9956C85.8 88.8767 85.03 89.6476 84.15 89.6476Z" fill="#303D63"/>
<path d="M92.9499 89.6476C92.0699 89.6476 91.2999 88.8767 91.2999 87.9956V82.489C91.2999 81.608 92.0699 80.837 92.9499 80.837C93.8299 80.837 94.5999 81.608 94.5999 82.489V87.9956C94.5999 88.8767 93.8299 89.6476 92.9499 89.6476Z" fill="#303D63"/>
<path d="M101.75 89.6476C100.87 89.6476 100.1 88.8767 100.1 87.9956V82.489C100.1 81.608 100.87 80.837 101.75 80.837C102.63 80.837 103.4 81.608 103.4 82.489V87.9956C103.4 88.8767 102.63 89.6476 101.75 89.6476Z" fill="#303D63"/>
<path d="M110.55 89.6476C109.67 89.6476 108.9 88.8767 108.9 87.9956V82.489C108.9 81.608 109.67 80.837 110.55 80.837C111.43 80.837 112.2 81.608 112.2 82.489V87.9956C112.2 88.8767 111.43 89.6476 110.55 89.6476Z" fill="#303D63"/>
<path d="M66.55 89.6476C65.67 89.6476 64.9 88.8767 64.9 87.9956V82.489C64.9 81.608 65.67 80.837 66.55 80.837C67.43 80.837 68.2 81.608 68.2 82.489V87.9956C68.2 88.8767 67.43 89.6476 66.55 89.6476Z" fill="#303D63"/>
<path d="M57.75 89.6476C56.87 89.6476 56.1 88.8767 56.1 87.9956V82.489C56.1 81.608 56.87 80.837 57.75 80.837C58.63 80.837 59.4 81.608 59.4 82.489V87.9956C59.4 88.8767 58.63 89.6476 57.75 89.6476Z" fill="#303D63"/>
<path d="M48.9499 89.6476C48.0699 89.6476 47.2999 88.8767 47.2999 87.9956V82.489C47.2999 81.608 48.0699 80.837 48.9499 80.837C49.8299 80.837 50.5999 81.608 50.5999 82.489V87.9956C50.5999 88.8767 49.8299 89.6476 48.9499 89.6476Z" fill="#303D63"/>
<path d="M40.15 89.6476C39.27 89.6476 38.5 88.8767 38.5 87.9956V82.489C38.5 81.608 39.27 80.837 40.15 80.837C41.03 80.837 41.8 81.608 41.8 82.489V87.9956C41.8 88.8767 41.03 89.6476 40.15 89.6476Z" fill="#303D63"/>
</svg>
