<svg width="156" height="100" viewBox="0 0 156 100" fill="none" xmlns="http://www.w3.org/2000/svg">
<path d="M4.10291 14.207C4.10291 15.0881 4.87496 15.859 5.75732 15.859C6.63967 15.859 7.41173 15.0881 7.41173 14.207C7.41173 13.326 7.41173 9.2511 7.41173 9.2511C7.41173 8.37005 6.63967 7.59912 5.75732 7.59912C4.76467 7.59912 4.10291 8.25991 4.10291 9.2511V14.207Z" fill="#C5C7C8"/>
<path d="M3.22057 10.022C2.33822 10.022 1.56616 10.7929 1.56616 11.674C1.56616 12.555 2.33822 13.3259 3.22057 13.3259C4.10293 13.3259 8.2941 13.3259 8.2941 13.3259C9.17646 13.3259 9.94852 12.555 9.94852 11.674C9.94852 10.7929 9.28675 10.022 8.2941 10.022H3.22057Z" fill="#C5C7C8"/>
<path d="M148.588 93.5022C148.588 94.3833 149.36 95.1542 150.243 95.1542C151.125 95.1542 151.897 94.3833 151.897 93.5022C151.897 92.6212 151.897 88.5463 151.897 88.5463C151.897 87.6652 151.125 86.8943 150.243 86.8943C149.36 86.8943 148.588 87.6652 148.588 88.5463V93.5022Z" fill="#C5C7C8"/>
<path d="M147.706 89.3171C146.824 89.3171 146.052 90.0881 146.052 90.9691C146.052 91.8502 146.824 92.6211 147.706 92.6211C148.588 92.6211 152.779 92.6211 152.779 92.6211C153.662 92.6211 154.434 91.8502 154.434 90.9691C154.434 90.0881 153.662 89.3171 152.779 89.3171H147.706Z" fill="#C5C7C8"/>
<path d="M7.74267 96.4757C6.86032 96.4757 6.08826 97.2466 6.08826 98.1277C6.08826 99.0088 7.74267 99.7797 7.74267 99.7797H10.5C11.3824 99.7797 12.1544 99.0088 12.1544 98.1277C12.1544 97.2466 11.3824 96.4757 10.5 96.4757H7.74267Z" fill="#C5C7C8"/>
<path d="M16.5662 96.4757C15.6838 96.4757 14.9117 97.2466 14.9117 98.1277C14.9117 99.0088 15.6838 99.7797 16.5662 99.7797C17.4485 99.7797 27.9264 99.7797 27.9264 99.7797C28.8088 99.7797 29.5809 99.0088 29.5809 98.1277C29.5809 97.2466 28.8088 96.4757 27.9264 96.4757H16.5662Z" fill="#C5C7C8"/>
<path d="M143.735 3.85462C144.618 3.85462 145.39 3.0837 145.39 2.20264C145.39 1.32158 143.735 0.550659 143.735 0.550659H140.978C140.096 0.550659 139.323 1.32158 139.323 2.20264C139.323 3.0837 140.096 3.85462 140.978 3.85462H143.735Z" fill="#C5C7C8"/>
<path d="M134.912 3.85462C135.794 3.85462 136.566 3.0837 136.566 2.20264C136.566 1.32158 135.794 0.550659 134.912 0.550659C134.029 0.550659 123.552 0.550659 123.552 0.550659C122.669 0.550659 121.897 1.32158 121.897 2.20264C121.897 3.0837 122.669 3.85462 123.552 3.85462H134.912Z" fill="#C5C7C8"/>
<path d="M129.177 90.6388H34.6545C33.7721 90.6388 33.0001 89.8679 33.0001 88.9868C33.0001 88.1058 33.7721 87.3349 34.6545 87.3349H129.177C134.691 87.3349 139.213 82.8194 139.213 77.3128V22.7974C139.213 17.2908 134.691 12.7754 129.177 12.7754H26.8236C21.3089 12.7754 16.7869 17.2908 16.7869 22.7974V77.3128C16.7869 80.1763 18.0001 82.9296 20.0957 84.8018C20.7574 85.4626 20.8677 86.4538 20.206 87.1146C19.5442 87.7754 18.5516 87.8855 17.8898 87.2247C15.0221 84.6917 13.478 81.0573 13.478 77.3128V22.7974C13.478 15.4186 19.4339 9.47144 26.8236 9.47144H129.066C136.456 9.47144 142.412 15.4186 142.412 22.7974V77.3128C142.522 84.5816 136.566 90.6388 129.177 90.6388Z" fill="#303D63"/>
<path d="M140.096 74.7798H54.0663C53.1839 74.7798 52.4119 74.0089 52.4119 73.1278C52.4119 72.2468 53.1839 71.4758 54.0663 71.4758H140.096C140.978 71.4758 141.75 72.2468 141.75 73.1278C141.75 74.0089 141.088 74.7798 140.096 74.7798Z" fill="#303D63"/>
<path d="M30.353 74.7798H15.1324C14.2501 74.7798 13.478 74.0089 13.478 73.1278C13.478 72.2468 14.2501 71.4758 15.1324 71.4758H30.353C31.2354 71.4758 32.0074 72.2468 32.0074 73.1278C32.0074 74.0089 31.2354 74.7798 30.353 74.7798Z" fill="#303D63"/>
<path d="M122.449 60.3525H111.53C109.213 60.3525 107.338 58.4802 107.338 56.1674V45.2644C107.338 42.9516 109.213 41.0793 111.53 41.0793H122.449C124.765 41.0793 126.64 42.9516 126.64 45.2644V56.1674C126.64 58.4802 124.765 60.3525 122.449 60.3525ZM111.53 44.4934C111.088 44.4934 110.647 44.8238 110.647 45.3745V56.1674C110.647 56.608 110.978 57.0485 111.53 57.0485H122.449C122.89 57.0485 123.331 56.7181 123.331 56.1674V45.2644C123.331 44.8238 123 44.3833 122.449 44.3833H111.53V44.4934Z" fill="#0285C9"/>
</svg>
