<svg width="16" height="11" viewBox="0 0 16 11" fill="none" xmlns="http://www.w3.org/2000/svg">
<path d="M15.991 4.21094C15.9852 3.90161 15.9598 3.51049 15.9152 3.03795C15.8705 2.56514 15.8065 2.1426 15.7232 1.77029C15.628 1.35212 15.4211 0.999738 15.1027 0.713277C14.7843 0.426756 14.4137 0.260665 13.991 0.214763C12.6695 0.0716378 10.6725 0 7.99997 0C5.32742 0 3.3304 0.0716378 2.00897 0.214763C1.58628 0.260635 1.21717 0.426756 0.901784 0.713277C0.586272 0.999647 0.380903 1.35203 0.285646 1.77029C0.196456 2.14272 0.129407 2.56523 0.0847807 3.03795C0.0402169 3.51049 0.0148859 3.90146 0.00897531 4.21094C0.00293965 4.52031 0 4.94995 0 5.5C0 6.04998 0.00293965 6.47975 0.00900658 6.78906C0.0149171 7.0986 0.0402481 7.48951 0.0848119 7.96202C0.129438 8.4348 0.193454 8.85734 0.276796 9.2297C0.372053 9.648 0.57886 10.0003 0.897312 10.2867C1.21583 10.5731 1.58644 10.7392 2.009 10.7851C3.33043 10.9284 5.32733 11 8 11C10.6728 11 12.6695 10.9284 13.991 10.7851C14.4138 10.7393 14.7827 10.5731 15.0982 10.2867C15.4138 10.0003 15.619 9.64779 15.7143 9.2297C15.8035 8.85734 15.8705 8.4348 15.9152 7.96202C15.9598 7.48954 15.985 7.09842 15.991 6.78906C15.997 6.47975 16 6.04998 16 5.5C16 4.94995 15.997 4.52031 15.991 4.21094ZM11.1607 5.96408L6.58938 8.71397C6.506 8.77125 6.40471 8.79988 6.28572 8.79988C6.1965 8.79988 6.10424 8.77688 6.00901 8.73107C5.81262 8.62807 5.71446 8.46758 5.71446 8.24993V2.75011C5.71446 2.53251 5.81265 2.37202 6.00901 2.26893C6.21144 2.16566 6.40483 2.17144 6.58938 2.28612L11.1608 5.03604C11.3393 5.13326 11.4285 5.28804 11.4285 5.50003C11.4285 5.71193 11.3393 5.86677 11.1607 5.96408Z" fill="white"/>
</svg>
