<svg width="14" height="14" viewBox="0 0 14 14" fill="none" xmlns="http://www.w3.org/2000/svg">
<path d="M3.18101 4.34766H0.173218V13.3801H3.18101V4.34766Z" fill="white"/>
<path d="M13.052 5.17264C12.4202 4.48294 11.5845 4.13803 10.5455 4.13803C10.1627 4.13803 9.81476 4.18512 9.50178 4.27936C9.18889 4.37354 8.92461 4.50567 8.70884 4.67583C8.49319 4.84599 8.32143 5.00395 8.19393 5.14972C8.07268 5.28817 7.95411 5.44946 7.83842 5.63191V4.34752H4.8396L4.84879 4.78508C4.85496 5.07683 4.85799 5.97608 4.85799 7.48295C4.85799 8.98995 4.85192 10.9556 4.83973 13.3801H7.83842V8.33964C7.83842 8.02982 7.87165 7.78377 7.93863 7.60133C8.06633 7.29128 8.25905 7.0317 8.51745 6.82215C8.77581 6.61234 9.09624 6.50753 9.47917 6.50753C10.0016 6.50753 10.3861 6.68829 10.6322 7.04983C10.8782 7.41134 11.0013 7.91115 11.0013 8.5492V13.3798H14V8.20307C13.9997 6.8722 13.684 5.86211 13.052 5.17264Z" fill="white"/>
<path d="M1.69528 0C1.191 0 0.782403 0.147459 0.469384 0.44209C0.156398 0.736785 0 1.10883 0 1.55858C0 2.00205 0.151896 2.37282 0.455721 2.67048C0.75945 2.96818 1.16055 3.11711 1.65879 3.11711H1.67702C2.18749 3.11711 2.59922 2.96831 2.91211 2.67048C3.225 2.37282 3.3784 2.00218 3.37237 1.55858C3.3663 1.10886 3.21124 0.736785 2.90751 0.44209C2.60382 0.147331 2.19959 0 1.69528 0Z" fill="white"/>
</svg>
